<svg id="Layer_1" data-name="Layer 1" xmlns="http://www.w3.org/2000/svg" viewBox="0 0 70.87 70.87"><defs><style>.cls-1{fill:#fff;}.cls-1,.cls-2{stroke:#ed1c24;stroke-linecap:round;stroke-linejoin:round;stroke-width:1.3px;}.cls-2{fill:none;}</style></defs><title>light icon final</title><circle class="cls-1" cx="35.43" cy="35.43" r="26.87"/><path class="cls-2" d="M38.06,53v-1.5c0-.64,2.12-2.95,2.64-3.77C41,47.26,43.3,42,43.3,42c0-.73-1.59-1.43-3-.15l-2.24,2.25-.75-.75V33.53a1.5,1.5,0,0,0-1.5-1.5h0a1.5,1.5,0,0,0-1.5,1.5v4.53h-1.5a1.38,1.38,0,0,0-1.5.75h-1.5a1.65,1.65,0,0,0-1.5,1.49H26.82a1.55,1.55,0,0,0-1.5,1.47v6.78c0,1.51,1.5,2.43,1.5,3.44v1"/><line class="cls-2" x1="31.31" y1="38.81" x2="31.31" y2="41.8"/><line class="cls-2" x1="28.31" y1="40.3" x2="28.31" y2="42.55"/><circle class="cls-2" cx="28.31" cy="26.82" r="2.25"/><circle class="cls-2" cx="35.81" cy="26.82" r="2.25"/><circle class="cls-2" cx="43.3" cy="26.82" r="2.25"/><circle class="cls-2" cx="28.31" cy="33.56" r="2.25"/><circle class="cls-2" cx="43.3" cy="33.56" r="2.25"/><circle class="cls-2" cx="43.3" cy="20.07" r="2.25"/><circle class="cls-2" cx="35.81" cy="20.07" r="2.25"/><circle class="cls-2" cx="28.31" cy="20.07" r="2.25"/></svg>