<svg id="Layer_1" data-name="Layer 1" xmlns="http://www.w3.org/2000/svg" viewBox="0 0 70.87 70.87"><defs><style>.cls-1{fill:#fff;}.cls-1,.cls-2{stroke:#ed1c24;stroke-linecap:round;stroke-linejoin:round;stroke-width:1.3px;}.cls-2{fill:none;}</style></defs><title>light icon final</title><circle class="cls-1" cx="35.43" cy="35.43" r="26.87"/><path class="cls-2" d="M28.12,42.74c6.6,6.6,12.9,8,15.23,8.12a17.22,17.22,0,0,0,2.54-5.58,21.25,21.25,0,0,0-6.1-4.06l-2.53,2.54a15.14,15.14,0,0,1-6.09-4.06,15.09,15.09,0,0,1-4.06-6.09l2.53-2.54A20.93,20.93,0,0,0,25.58,25,17,17,0,0,0,20,27.52C20.13,29.84,21.52,36.15,28.12,42.74Z"/><path class="cls-2" d="M38,36.46l8.7-8.7a.91.91,0,0,1,1.26,0l1.44,1.44a.88.88,0,0,0,1.51-.63V20.89A.89.89,0,0,0,50,20H42.26a.89.89,0,0,0-.63,1.52l1.42,1.42a.9.9,0,0,1,0,1.26l-8.7,8.69"/></svg>