<svg id="Layer_1" data-name="Layer 1" xmlns="http://www.w3.org/2000/svg" viewBox="0 0 70.87 70.87"><defs><style>.cls-1{fill:#fff;stroke:#ed1c24;stroke-linecap:round;stroke-linejoin:round;stroke-width:1.3px;}.cls-2{fill:#ec2329;}.cls-3{fill:#ed1c24;}</style></defs><title>light icon final</title><circle class="cls-1" cx="35.43" cy="35.43" r="26.87"/><path class="cls-2" d="M52.6,30.49a6.78,6.78,0,0,0-6.34-4.43,6.7,6.7,0,0,0-2.85.64,9,9,0,0,0-16.6-2.15,8.32,8.32,0,0,0-.55,1.17,6.78,6.78,0,0,0-1.08-.1A6.35,6.35,0,0,0,19,30.48h-.42a4.94,4.94,0,0,0-4.94,4.93v.32a5,5,0,0,0,4.94,4.94h5V39.39h-5a3.66,3.66,0,0,1-3.66-3.66v-.32a3.66,3.66,0,0,1,3.66-3.66H20l.09-.54a5.08,5.08,0,0,1,5.05-4.31h.38c1.82.11,2.06,2.22,2.07,2.31l0,.12h1.26v-.13a3.6,3.6,0,0,0-1.5-2.91,7.1,7.1,0,0,1,.51-1.14,7.74,7.74,0,0,1,14.41,2.6l.15,1,.82-.52a5.47,5.47,0,0,1,8.23,3.08l.13.46h.65A3.66,3.66,0,0,1,56,35.41v.32a3.66,3.66,0,0,1-3.66,3.66H47v1.28h5.27a4.94,4.94,0,0,0,4.93-4.94v-.32A4.92,4.92,0,0,0,52.6,30.49Z"/><path class="cls-3" d="M31.5,40.79H29.38l-.48,1.33h-.68l1.93-5.06h.58l1.94,5.06H32Zm-1.92-.54H31.3l-.86-2.37Z"/><path class="cls-3" d="M34,40.14v2h-.67V37.06h1.87a1.9,1.9,0,0,1,1.3.42,1.61,1.61,0,0,1,0,2.26,2,2,0,0,1-1.32.4Zm0-.55h1.2a1.2,1.2,0,0,0,.82-.25.92.92,0,0,0,.28-.73,1,1,0,0,0-.28-.73,1.15,1.15,0,0,0-.79-.28H34Z"/><path class="cls-3" d="M38.56,42.12h-.67V37.06h.67Z"/><path class="cls-3" d="M41.87,41.12a.48.48,0,0,0-.2-.41,1.85,1.85,0,0,0-.69-.24,3.66,3.66,0,0,1-.77-.25,1.15,1.15,0,0,1-.42-.35.8.8,0,0,1-.14-.48,1,1,0,0,1,.39-.78,1.48,1.48,0,0,1,1-.32,1.6,1.6,0,0,1,1,.33,1.05,1.05,0,0,1,.39.84h-.64A.56.56,0,0,0,41.6,39a.83.83,0,0,0-.56-.2.82.82,0,0,0-.55.16.48.48,0,0,0-.2.4.39.39,0,0,0,.19.35,2.14,2.14,0,0,0,.66.22,3.93,3.93,0,0,1,.78.26,1.08,1.08,0,0,1,.44.36.85.85,0,0,1,.15.51,1,1,0,0,1-.4.81,1.66,1.66,0,0,1-1,.31,2,2,0,0,1-.8-.16,1.34,1.34,0,0,1-.54-.45,1,1,0,0,1-.2-.62h.64a.66.66,0,0,0,.26.51,1,1,0,0,0,.64.19,1,1,0,0,0,.58-.15A.45.45,0,0,0,41.87,41.12Z"/><path class="cls-3" d="M25.48,40.08l2.17.88v.68l-2.84-1.31v-.51l2.84-1.32v.69Z"/><path class="cls-3" d="M45.39,40.07l-2.17-.88V38.5l2.84,1.32v.51l-2.84,1.31V41Z"/></svg>