<svg id="Layer_1" data-name="Layer 1" xmlns="http://www.w3.org/2000/svg" viewBox="0 0 70.87 70.87"><defs><style>.cls-1{fill:#fff;}.cls-1,.cls-2{stroke:#ed1c24;stroke-linecap:round;stroke-linejoin:round;stroke-width:1.3px;}.cls-2{fill:none;}</style></defs><title>light icon final</title><path class="cls-1" d="M40.76,61.77l1-.23.25,0a26.65,26.65,0,0,0,7.44-3.14l.64-.4.42-.28.91-.64.11-.08a26.91,26.91,0,0,0,3.78-3.44l0,0,.76-.87.12-.15c.2-.25.41-.51.6-.77l.23-.3c.16-.21.31-.42.46-.64l.32-.48.32-.48c.14-.23.28-.45.41-.68l.19-.32c.16-.28.32-.57.47-.86l.09-.16.51-1v0a27.16,27.16,0,0,0,1.7-4.81l0-.13c.09-.36.17-.73.24-1.09l.09-.5c0-.24.09-.49.13-.74a26.81,26.81,0,0,0-.18-9.06l0-.17c0-.07,0-.13,0-.2a26.26,26.26,0,0,0-1.41-4.67l-.07-.15-.08-.2a27.24,27.24,0,0,0-1.43-2.86l-.16-.31c-.26-.44-.54-.88-.82-1.31a2.2,2.2,0,0,1-.17-.25c-.38-.55-.79-1.09-1.21-1.62L55.86,18c-.34-.4-.7-.79-1.06-1.17-.12-.13-.23-.26-.35-.38l-.09-.08A26.13,26.13,0,0,0,51.6,14l-.11-.1-.6-.41L50.25,13l-.66-.41c-.28-.18-.57-.35-.87-.52l-.47-.26c-.36-.2-.72-.39-1.09-.57l-.33-.15c-.42-.2-.84-.39-1.27-.56l-.24-.09q-.68-.27-1.38-.51l-.24-.07c-.46-.15-.92-.29-1.39-.42l-.41-.1c-.41-.1-.82-.2-1.23-.28l-.89-.15L39,8.79a27.59,27.59,0,0,0-4.55-.21L34,8.6l-.89.06-.73.08-.75.09L30.48,9l-.37.07c-.55.11-1.09.24-1.63.38l-.14,0c-.54.15-1.06.31-1.58.49l-.1,0a27.11,27.11,0,0,0-5.25,2.47l-.63.41-.42.27c-.31.21-.61.43-.91.65l-.11.08a26.85,26.85,0,0,0-3.78,3.43l0,0c-.26.28-.51.57-.76.87l-.12.14-.61.78-.22.29-.46.65-.33.47-.31.49-.41.67-.19.32c-.16.29-.32.57-.48.87,0,0-.05.11-.08.16-.18.34-.35.69-.51,1l0,0A26.36,26.36,0,0,0,9.35,29l0,.14c-.09.36-.17.72-.24,1.09,0,.16-.06.33-.09.49s-.09.5-.13.74a26.69,26.69,0,0,0,0,8.08c0,.08,0,.16,0,.24.06.34.11.68.18,1s.15.66.23,1a2.44,2.44,0,0,0,.06.26,26.63,26.63,0,0,0,3.13,7.44l.41.64c.09.13.17.28.27.41.21.31.42.61.64.91l.08.11a27,27,0,0,0,3.44,3.78l0,0c.29.25.58.51.88.75l.14.12c.25.21.51.41.77.61l.3.23.64.45.48.33.48.31.68.42.32.18.86.48.16.08c.35.18.69.35,1,.51l0,0A26.36,26.36,0,0,0,29,61.51l.14,0q.54.14,1.08.24l.5.09.74.13a26.69,26.69,0,0,0,8.08,0l.23,0Z"/><rect class="cls-2" x="31" y="43.23" width="8.09" height="8.09" rx="4.04" ry="4.04"/><rect class="cls-2" x="31" y="31.1" width="8.09" height="8.09" rx="4.04" ry="4.04"/><rect class="cls-2" x="31" y="19.55" width="8.09" height="8.09" rx="4.04" ry="4.04"/><polyline class="cls-2" points="39.09 47.27 50.64 47.27 50.64 35.14 42.55 35.14"/><polyline class="cls-2" points="46.02 31.68 42.55 35.14 46.02 38.61"/><polyline class="cls-2" points="30.62 35.14 20.23 35.14 20.23 23.01 28.31 23.01"/><polyline class="cls-2" points="24.85 19.55 28.31 23.01 24.85 26.48"/></svg>