<?xml version="1.0" encoding="UTF-8"?>
<svg width="60px" height="60px" viewBox="0 0 60 60" version="1.1" xmlns="http://www.w3.org/2000/svg" xmlns:xlink="http://www.w3.org/1999/xlink">
    <!-- Generator: Sketch 48.2 (47327) - http://www.bohemiancoding.com/sketch -->
    <title>Group 30</title>
    <desc>Created with Sketch.</desc>
    <defs>
        <polygon id="path-1" points="0 33 33 33 33 0 0 0"></polygon>
    </defs>
    <g id="animated" stroke="none" stroke-width="1" fill="none" fill-rule="evenodd">
        <g id="Group-30">
            <circle id="Oval-Copy-137" fill="#6BD1FF" cx="30" cy="30" r="30"></circle>
            <g id="Page-1-Copy-3" transform="translate(14.000000, 14.000000)">
                <path d="M6,19.5 C3.45,19.5 1.5,17.55 1.5,15 C1.5,12.45 3.45,10.5 6,10.5 C6.6,10.5 7.05,10.65 7.5,10.8 C7.5,10.65 7.5,10.65 7.5,10.5 C7.5,5.55 11.55,1.5 16.5,1.5 C19.8,1.5 22.8,3.3 24.3,6 C24.45,6 24.6,6 24.75,6 C28.5,6 31.5,9 31.5,12.75 C31.5,16.5 28.5,19.5 24.75,19.5" id="Stroke-1" stroke="#FFFFFF" stroke-width="3" stroke-linecap="round" stroke-linejoin="round"></path>
                <mask id="mask-2" fill="white">
                    <use xlink:href="#path-1"></use>
                </mask>
                <g id="Clip-4"></g>
                <path d="M18.9,12.75 C17.55,14.25 16.05,15.75 14.5500015,17.1 C14.4,17.25 14.2500015,17.25 14.1000015,17.1 L13.5,16.5 C13.05,16.05 12.45,16.05 12.15,16.5 L10.95,17.7 C10.5,18 10.5,18.75 10.8,19.05 L11.4,19.6499985 C12.6,20.85 14.55,21 15.9,19.8 C18,18 19.95,16.05 21.75,13.95 C22.8,12.6 22.8,10.65 21.6,9.45 L21,9 C20.55,8.55 19.95,8.55 19.65,9 L18.45,10.2 C18,10.65 18,11.25 18.45,11.55 L19.05,12.15 C19.05,12.3 19.05,12.6 18.9,12.75 Z" id="Fill-3" fill="#FFFFFF" mask="url(#mask-2)"></path>
                <path d="M18.9,12.75 C17.55,14.25 16.05,15.75 14.5500015,17.1 C14.4,17.25 14.2500015,17.25 14.1000015,17.1 L13.5,16.5 C13.05,16.05 12.45,16.05 12.15,16.5 L10.95,17.7 C10.5,18 10.5,18.75 10.8,19.05 L11.4,19.65 C12.6,20.85 14.55,21 15.9,19.8 C18,18 19.95,16.05 21.75,13.9499985 C22.8,12.6 22.8,10.6499985 21.6,9.4499985 L21,9 C20.55,8.55 19.95,8.55 19.65,9 L18.45,10.2 C18,10.65 18,11.25 18.45,11.55 L19.05,12.15 C19.05,12.3 19.05,12.6 18.9,12.75 Z" id="Stroke-5" stroke="#FFFFFF" stroke-width="1.5" stroke-linecap="round" stroke-linejoin="round" mask="url(#mask-2)"></path>
                <path d="M16.5,24 L16.5,31.5" id="Stroke-6" stroke="#FFFFFF" stroke-width="3" stroke-linecap="round" stroke-linejoin="round" mask="url(#mask-2)"></path>
                <path d="M16.5,31.5 L13.5,28.5" id="Stroke-7" stroke="#FFFFFF" stroke-width="3" stroke-linecap="round" stroke-linejoin="round" mask="url(#mask-2)"></path>
                <path d="M16.5,31.5 L19.5,28.5" id="Stroke-8" stroke="#FFFFFF" stroke-width="3" stroke-linecap="round" stroke-linejoin="round" mask="url(#mask-2)"></path>
            </g>
        </g>
    </g>
</svg>