<svg id="Layer_1" data-name="Layer 1" xmlns="http://www.w3.org/2000/svg" viewBox="0 0 70.87 70.87"><defs><style>.cls-1{fill:#fff;}.cls-1,.cls-2{stroke:#ed1c24;stroke-linecap:round;stroke-linejoin:round;stroke-width:1.3px;}.cls-2{fill:none;}</style></defs><title>light icon final</title><circle class="cls-1" cx="35.43" cy="35.43" r="26.87"/><path class="cls-2" d="M35.43,28.9c-11.33,0-17.94,4.21-20,6.1A20.55,20.55,0,0,0,18,42a25.79,25.79,0,0,0,8.72-1.74V35.87c.94-.55,3.83-1.74,8.71-1.74s7.77,1.19,8.72,1.74v4.36A25.69,25.69,0,0,0,52.87,42a20.76,20.76,0,0,0,2.61-7C53.37,33.11,46.76,28.9,35.43,28.9Z"/><line class="cls-2" x1="31.12" y1="39.79" x2="39.74" y2="39.79"/></svg>