<?xml version="1.0" encoding="UTF-8"?>
<svg width="60px" height="60px" viewBox="0 0 60 60" version="1.1" xmlns="http://www.w3.org/2000/svg" xmlns:xlink="http://www.w3.org/1999/xlink">
    <!-- Generator: Sketch 48.2 (47327) - http://www.bohemiancoding.com/sketch -->
    <title>Group 40</title>
    <desc>Created with Sketch.</desc>
    <defs></defs>
    <g id="animated" stroke="none" stroke-width="1" fill="none" fill-rule="evenodd">
        <g id="Group-40">
            <circle id="Oval-Copy-149" fill="#2B3454" cx="30" cy="30" r="30"></circle>
            <g id="Page-1-Copy-10" transform="translate(12.000000, 20.000000)" stroke="#FFFFFF" stroke-linecap="round" stroke-linejoin="round" stroke-width="3">
                <path d="M0,9.6 C0,6 3.04347826,3 6.69565217,3 L13.6956522,3" id="Stroke-1"></path>
                <polyline id="Stroke-3" points="10.6521739 6 13.6956522 3 10.6521739 0"></polyline>
                <path d="M20.5434783,20.85 L19.173913,22.2 C16.8913043,24.45 13.0869565,24.45 10.8043478,22.2 C8.52173913,19.95 8.52173913,16.2 10.8043478,13.95 L14.9130435,9.8999985 C17.1956522,7.6499985 21,7.6499985 23.2826087,9.8999985" id="Stroke-5"></path>
                <path d="M22.0652174,3.15 L23.4347826,1.8 C25.7173913,-0.45 29.5217391,-0.45 31.8043478,1.8 C34.0869565,4.05 34.0869565,7.8 31.8043478,10.05 L27.6956522,14.1 C25.4130435,16.35 21.6086957,16.35 19.326087,14.1" id="Stroke-7"></path>
            </g>
        </g>
    </g>
</svg>