<?xml version="1.0" encoding="UTF-8"?>
<svg width="60px" height="60px" viewBox="0 0 60 60" version="1.1" xmlns="http://www.w3.org/2000/svg" xmlns:xlink="http://www.w3.org/1999/xlink">
    <!-- Generator: Sketch 48.2 (47327) - http://www.bohemiancoding.com/sketch -->
    <title>Group 31</title>
    <desc>Created with Sketch.</desc>
    <defs></defs>
    <g id="animated" stroke="none" stroke-width="1" fill="none" fill-rule="evenodd">
        <g id="Group-31">
            <circle id="Oval-Copy-138" fill="#2D9BF3" cx="30" cy="30" r="30"></circle>
            <g id="Page-1-Copy-2" transform="translate(17.000000, 15.000000)" stroke="#FFFFFF" stroke-linecap="round" stroke-linejoin="round" stroke-width="3">
                <path d="M13.5,17.25 C13.5,18.492645 12.4926405,19.5 11.25,19.5 C10.0073595,19.5 9,18.492645 9,17.25 C9,16.007355 10.0073595,15 11.25,15 C12.4926405,15 13.5,16.007355 13.5,17.25 Z" id="Stroke-1"></path>
                <path d="M13.5,16.5 L13.5,7.5" id="Stroke-3"></path>
                <path d="M16.5,27 L1.5,27 C0.75,27 0,26.25 0,25.5 L0,7.5 L7.5,0 L22.5,0 C23.25,0 24,0.75 24,1.5 L24,15.15" id="Stroke-5"></path>
                <polyline id="Stroke-7" points="7.5 0 7.5 7.5 0 7.5"></polyline>
                <path d="M13.5,7.5 L16.5,10.5" id="Stroke-9"></path>
                <path d="M30,22.5 C30,26.64213 26.64213,30 22.5,30 C18.35787,30 15,26.64213 15,22.5 C15,18.35787 18.35787,15 22.5,15 C26.64213,15 30,18.35787 30,22.5 Z" id="Stroke-11"></path>
                <polygon id="Stroke-13" points="21.75 20.25 21.75 24.75 24.75 22.5"></polygon>
            </g>
        </g>
    </g>
</svg>