<svg id="Layer_1" data-name="Layer 1" xmlns="http://www.w3.org/2000/svg" viewBox="0 0 70.87 70.87"><defs><style>.cls-1{fill:#fff;}.cls-1,.cls-2,.cls-3,.cls-4{stroke:#ed1c24;}.cls-1,.cls-2{stroke-linecap:round;stroke-linejoin:round;stroke-width:1.3px;}.cls-2,.cls-3{fill:none;}.cls-3,.cls-4{stroke-miterlimit:10;}.cls-3{stroke-width:1.34px;}.cls-4{fill:#ed1c24;stroke-width:0.5px;}</style></defs><title>light icon final</title><circle class="cls-1" cx="35.43" cy="35.43" r="26.87"/><path class="cls-2" d="M35.6,49H23.29A1.06,1.06,0,0,1,22.23,48v-26"/><path class="cls-2" d="M27.06,17.23H44.23a1.06,1.06,0,0,1,1.06,1.06V41.16"/><polygon class="cls-2" points="26.92 17.23 26.92 21.92 22.23 21.92 26.92 17.23"/><circle class="cls-3" cx="41.95" cy="46.95" r="6.69"/><path class="cls-2" d="M40.05,43.75s-.09,6.48,0,6.4S45.79,47,45.79,47Z"/><path class="cls-4" d="M39.11,36.5l.21-.23c.09-.1.17-.21.26-.32l.18-.25c.08-.11.15-.23.23-.35l.16-.26.19-.38.13-.27a3.25,3.25,0,0,0,.15-.4c0-.1.08-.19.11-.29l.12-.44c0-.09,0-.18.07-.27s.06-.33.08-.5,0-.16,0-.25c0-.25,0-.5,0-.76a7.33,7.33,0,0,0-7.32-7.32l-.48,0h0a7.28,7.28,0,0,0-4.5,1.94h0l-.08.08-.28.3a2.29,2.29,0,0,0-.21.23,4,4,0,0,0-.26.32,2.27,2.27,0,0,0-.18.25c-.08.11-.16.23-.23.35l-.16.26c-.07.12-.13.25-.19.38s-.09.18-.13.27-.11.27-.16.4-.07.19-.1.29-.08.29-.12.43-.05.19-.07.28a4.33,4.33,0,0,0-.08.5c0,.08,0,.16,0,.25a6.34,6.34,0,0,0,0,.76,7.33,7.33,0,0,0,7.32,7.32l.48,0h0a7.31,7.31,0,0,0,4.5-1.94h0l.09-.08Zm-5.43-2c-.23,0-.45,0-.67,0s-.35,0-.52,0c-.4,0-.79.09-1.17.16A14.1,14.1,0,0,1,31,31.83h5.58s0,.06,0,.09c0,.49,0,1-.09,1.42,0,.22-.08.42-.11.62s-.08.56-.14.81a13.84,13.84,0,0,0-2.44-.22Zm-2.95-6.39a14.42,14.42,0,0,0-.37,3.07H27.05a6.71,6.71,0,0,1,1.48-3.91A8.54,8.54,0,0,0,30.73,28.16Zm3.11.35h0l.67,0,.51,0c.4,0,.8-.09,1.18-.16a12.18,12.18,0,0,1,.24,1.41,15.3,15.3,0,0,1,.11,1.53H31v-.1c0-.48.05-.95.1-1.41,0-.22.08-.42.11-.64s.08-.54.14-.79a13.84,13.84,0,0,0,2.44.22Zm2.95,6.39a15.12,15.12,0,0,0,.36-3.07h3.32a6.73,6.73,0,0,1-.89,3.05,6.42,6.42,0,0,1-.59.85,9.74,9.74,0,0,0-1-.47A10,10,0,0,0,36.79,34.9ZM39,27.32a6.71,6.71,0,0,1,1.48,3.91H37.15a15.12,15.12,0,0,0-.36-3.07A10,10,0,0,0,38,27.8,8.11,8.11,0,0,0,39,27.32Zm-.41-.46a8.77,8.77,0,0,1-1.95.72,8.46,8.46,0,0,0-.57-1.48,5.58,5.58,0,0,0-.57-.88L35.32,25a6.81,6.81,0,0,1,1.77.7A7,7,0,0,1,38.58,26.86Zm-5.17-2a1,1,0,0,1,.35-.06c.69,0,1.39.68,1.91,1.87a8.5,8.5,0,0,1,.37,1c-.36.07-.74.12-1.12.16l-.42,0c-.25,0-.49,0-.74,0a12,12,0,0,1-2.28-.21,7,7,0,0,1,.37-1A3.07,3.07,0,0,1,33.41,24.88Zm-2.53,2.7c-.31-.08-.61-.18-.9-.28l-.24-.08a8.4,8.4,0,0,1-.8-.36A6.71,6.71,0,0,1,32.2,25,6.7,6.7,0,0,0,30.88,27.58Zm-2.94,7.3a6.73,6.73,0,0,1-.89-3.05h3.31a14.42,14.42,0,0,0,.37,3.07c-.28.07-.54.16-.81.25a8.41,8.41,0,0,0-1.39.58A5.6,5.6,0,0,1,27.94,34.88Zm1.7,1.95a7,7,0,0,1-.7-.63,7.59,7.59,0,0,1,.91-.41c.33-.11.67-.22,1-.31A8.46,8.46,0,0,0,31.46,37a5,5,0,0,0,.57.88,2.11,2.11,0,0,0,.17.22,6.88,6.88,0,0,1-1.78-.7A8.23,8.23,0,0,1,29.64,36.83Zm4.47,1.35a1.07,1.07,0,0,1-.35.06c-.69,0-1.39-.68-1.91-1.87a7,7,0,0,1-.37-1,1.2,1.2,0,0,1,.2,0,12.68,12.68,0,0,1,2.08-.18h0a12,12,0,0,1,2.28.21,8.5,8.5,0,0,1-.37,1A3.11,3.11,0,0,1,34.11,38.18Zm2.52-2.7a8.06,8.06,0,0,1,.91.28l.23.08a8.6,8.6,0,0,1,.81.36h0a6.74,6.74,0,0,1-3.27,1.86A6.44,6.44,0,0,0,36.63,35.48Z"/></svg>