<?xml version="1.0" encoding="UTF-8"?>
<svg width="40px" height="40px" viewBox="0 0 40 40" version="1.1" xmlns="http://www.w3.org/2000/svg" xmlns:xlink="http://www.w3.org/1999/xlink">
    <!-- Generator: Sketch 49 (51002) - http://www.bohemiancoding.com/sketch -->
    <title>Group 52</title>
    <desc>Created with Sketch.</desc>
    <defs></defs>
    <g id="animated" stroke="none" stroke-width="1" fill="none" fill-rule="evenodd">
        <g id="Group-52">
            <path d="M19,16 L17,16 L17,14.7 C17,14.3 16.6,14 16.2,14 L11.7,14 C11.3,14 11,14.3 11,14.7 L11,19" id="Stroke-1" stroke="#FFFFFF" stroke-width="2" stroke-linecap="round" stroke-linejoin="round"></path>
            <path d="M12.1,29 L29,29 L29,16.7 C29,16.3 28.7,16 28.3,16 L27,16" id="Stroke-3" stroke="#FFFFFF" stroke-width="2" stroke-linecap="round" stroke-linejoin="round"></path>
            <path d="M23,9 L23,16" id="Stroke-7" stroke="#FFFFFF" stroke-width="2" stroke-linecap="round" stroke-linejoin="round"></path>
            <polyline id="Stroke-9" stroke="#FFFFFF" stroke-width="2" stroke-linecap="round" stroke-linejoin="round" points="21 11 23 9 25 11"></polyline>
            <path d="M28.1777778,12.4444444 L30.2222222,14.5359477 L25.52,14.5359477 C23.0666667,14.5359477 21.0222222,16.627451 21.0222222,19.1372549" id="Stroke-1" stroke="#FFFFFF" stroke-width="2.25" stroke-linecap="round" stroke-linejoin="round"></path>
            <path d="M30.2222222,14.5359477 L28.1777778,16.627451" id="Stroke-3" stroke="#FFFFFF" stroke-width="2.25" stroke-linecap="round" stroke-linejoin="round"></path>
            <path d="M14.6844444,19.1372549 C16.5244444,21.2287582 18.5688889,23.3202614 20.6133333,25.2026144 C20.8177778,25.4117647 21.1244444,25.4117647 21.3288889,25.2026144 L22.1466667,24.3660131 C22.6577778,23.8431373 23.4755556,23.8431373 23.9866667,24.3660131 L25.7244444,26.1437908 C26.2355556,26.6666667 26.2355556,27.503268 25.7244444,28.0261438 L24.9066667,28.8627451 C23.2711111,30.5359477 20.6133333,30.6405229 18.8755556,29.1764706 C15.9111111,26.6666667 13.2533333,23.9477124 10.8,21.0196078 C9.36888889,19.1372549 9.47111111,16.4183007 11.1066667,14.745098 L11.9244444,13.9084967 C12.4355556,13.3856209 13.2533333,13.3856209 13.7644444,13.9084967 L15.5022212,15.6862745 C16.0133323,16.2091503 16.0133323,17.0457527 15.5022212,17.5686285 L14.7866667,18.4052288 C14.5822222,18.6143791 14.5822222,18.9281046 14.6844444,19.1372549 Z" id="Stroke-5" stroke="#FFFFFF" stroke-width="2.25" stroke-linecap="round" stroke-linejoin="round"></path>
            <circle id="Oval-Copy-164" fill="#6BD1FF" cx="20" cy="20" r="20"></circle>
            <path d="M16,29.2 C17.2,29.7 18.5,30 20,30 C25.5,30 30,25.5 30,20 C30,14.5 25.5,10 20,10 C14.5,10 10,14.5 10,20 C10,22.1 10.6,23.9 11.7,25.5" id="Stroke-1" stroke="#FFFFFF" stroke-width="2" stroke-linecap="round" stroke-linejoin="round"></path>
            <polyline id="Stroke-3" stroke="#FFFFFF" stroke-width="2" stroke-linecap="round" stroke-linejoin="round" points="11.7 25.5 11.7 30 16 29.2"></polyline>
            <path d="M20,16 L20,24" id="Stroke-5" stroke="#FFFFFF" stroke-width="2" stroke-linecap="round" stroke-linejoin="round"></path>
            <path d="M23,17 L23,23" id="Stroke-7" stroke="#FFFFFF" stroke-width="2" stroke-linecap="round" stroke-linejoin="round"></path>
            <path d="M17,18 L17,22" id="Stroke-9" stroke="#FFFFFF" stroke-width="2" stroke-linecap="round" stroke-linejoin="round"></path>
            <path d="M14,19 L14,21" id="Stroke-11" stroke="#FFFFFF" stroke-width="2" stroke-linecap="round" stroke-linejoin="round"></path>
            <path d="M26,20 L26,21" id="Stroke-13" stroke="#FFFFFF" stroke-width="2" stroke-linecap="round" stroke-linejoin="round"></path>
        </g>
    </g>
</svg>