<svg id="Layer_1" data-name="Layer 1" xmlns="http://www.w3.org/2000/svg" viewBox="0 0 70.87 70.87"><defs><style>.cls-1{fill:#fff;}.cls-1,.cls-2{stroke:#ed1c24;stroke-linecap:round;stroke-linejoin:round;stroke-width:1.3px;}.cls-2{fill:none;}</style></defs><title>light icon final</title><circle class="cls-1" cx="35.43" cy="35.43" r="26.87"/><path class="cls-2" d="M24.63,45c6.8,6.8,13.29,8.24,15.69,8.37a17.71,17.71,0,0,0,2.62-5.75,22,22,0,0,0-6.28-4.19L34.05,46a15.57,15.57,0,0,1-6.28-4.18,15.64,15.64,0,0,1-4.18-6.28l2.61-2.61A21.74,21.74,0,0,0,22,26.65a17.41,17.41,0,0,0-5.75,2.62C16.4,31.66,17.84,38.16,24.63,45Z"/><path class="cls-2" d="M39.93,20.74c-5.72,0-10.35,3.64-10.35,8.13,0,4.32,4.29,7.85,9.71,8.11a17.35,17.35,0,0,1-.21,3.66.67.67,0,0,0,1,.72c2.27-1.1,10.24-6.8,10.24-12.49C50.28,24.38,45.65,20.74,39.93,20.74Z"/><line class="cls-2" x1="35.49" y1="28.87" x2="44.37" y2="28.87"/><line class="cls-2" x1="35.49" y1="25.91" x2="44.37" y2="25.91"/><line class="cls-2" x1="35.49" y1="31.83" x2="39.93" y2="31.83"/></svg>